<svg xmlns="http://www.w3.org/2000/svg" width="264" height="56" viewBox="0 0 264 56" class="spot-svg spot-svg-logo show-for-medium"> <g fill="none" fill-rule="evenodd"> <polygon fill="#52A792" points="104.827 20.155 104.827 28.793 81.629 28.793 81.629 31.672 104.827 31.672 116.426 31.672 116.426 20.155 116.426 11.517 93.228 11.517 93.228 20.155"></polygon> <polygon fill="#52A792" points="81.629 0 81.629 2.879 81.629 11.518 93.228 11.518 93.228 2.879 116.426 2.879 116.426 0"></polygon> <polygon fill="#52A792" points="41.032 0 41.032 2.879 64.23 2.879 64.23 20.155 52.631 20.155 52.631 11.518 41.032 11.518 41.032 31.672 52.631 31.672 64.23 31.672 75.829 31.672 75.829 2.879 75.829 0"></polygon> <polygon fill="#52A792" points="157.022 14.396 157.022 11.517 133.824 11.517 122.225 11.517 122.225 31.672 133.824 31.672 157.022 31.672 157.022 28.793 133.824 28.793 133.824 14.396"></polygon> <polygon fill="#52A792" points="23.634 11.518 12.035 11.518 .436 11.518 .436 40.309 12.035 40.309 12.035 20.155 23.634 20.155 23.634 31.673 35.233 31.673 35.233 11.518"></polygon> <g fill="#000000" transform="translate(23.064 43)"> <path d="M1.38764271,5.10443411 L2.00006844,5.10443411 C3.32699086,5.10443411 4.57736006,4.95125581 4.57736006,3.35497674 C4.57736006,2.24126689 3.94057649,1.6066711 2.81663609,1.6066711 L1.38764271,1.6066711 L1.38764271,5.10443411 Z M0.50728072,0.846538206 L2.70180626,0.846538206 C4.37437805,0.846538206 5.45888195,1.68268439 5.45888195,3.35497674 C5.45888195,5.00308306 4.20851275,5.864567 2.61249417,5.864567 L1.38764271,5.864567 L1.38764271,9.69056921 L0.50728072,9.69056921 L0.50728072,0.846538206 Z"></path> <polygon points="6.894 9.691 7.697 9.691 7.697 .188 6.894 .188"></polygon> <path d="M13.3722807 6.43386047L13.1426211 6.43386047C11.7519043 6.43386047 10.0932513 6.57321816 10.0932513 7.99328461 10.0932513 8.84209967 10.705677 9.15882171 11.4456915 9.15882171 13.3340041 9.15882171 13.3722807 7.52453599 13.3722807 6.82774751L13.3722807 6.43386047zM13.448834 8.65206645L13.4233162 8.65206645C13.0660679 9.42601993 12.1601881 9.84294131 11.3563794 9.84294131 9.5063433 9.84294131 9.2128893 8.60139092 9.2128893 8.01862237 9.2128893 5.85109192 11.5350035 5.74974086 13.2191743 5.74974086L13.3722807 5.74974086 13.3722807 5.42150166C13.3722807 4.31930897 12.9767558 3.76187818 11.8922519 3.76187818 11.2160318 3.76187818 10.5780883 3.91390476 9.97842147 4.29397121L9.97842147 3.52116944C10.4760174 3.28046069 11.3181028 3.07775858 11.8922519 3.07775858 13.4998694 3.07775858 14.1760895 3.79988483 14.1760895 5.48484607L14.1760895 8.33419269C14.1760895 8.85476855 14.1760895 9.24750388 14.2410438 9.69091473L13.448834 9.69091473 13.448834 8.65206645zM18.899307 3.9133289L17.4192781 3.9133289 17.4192781 8.0940598C17.4192781 8.67798007 17.6361789 9.15939756 18.2868812 9.15939756 18.5930941 9.15939756 18.797236 9.09490144 19.0268957 9.00737099L19.0779311 9.66615282C18.8865481 9.74216611 18.4910232 9.84236545 18.0954982 9.84236545 16.6665048 9.84236545 16.6154694 8.86801329 16.6154694 7.68865559L16.6154694 3.9133289 15.3395824 3.9133289 15.3395824 3.22805759 16.6154694 3.22805759 16.6154694 1.67093688 17.4192781 1.39222148 17.4192781 3.22805759 18.899307 3.22805759 18.899307 3.9133289zM21.2304684 3.9133289L19.9163049 3.9133289 19.9163049 3.22805759 21.2304684 3.22805759 21.2304684 2.76046069C21.2304684 1.40373865 21.2815039.0366511628 22.9529158.0366511628 23.2080932.0366511628 23.5525826.0746578073 23.7056891.162188261L23.6546536.860128461C23.4887883.770294574 23.2463698.720770764 23.0167101.720770764 21.9194474.720770764 22.0342772 1.89897674 22.0342772 2.67177852L22.0342772 3.22805759 23.5015472 3.22805759 23.5015472 3.9133289 22.0342772 3.9133289 22.0342772 9.69149059 21.2304684 9.69149059 21.2304684 3.9133289zM27.3476504 9.15905205C28.751126 9.15905205 29.5038993 7.95435659 29.5038993 6.46058029 29.5038993 4.96450055 28.751126 3.76095681 27.3476504 3.76095681 25.9441747 3.76095681 25.1914014 4.96450055 25.1914014 6.46058029 25.1914014 7.95435659 25.9441747 9.15905205 27.3476504 9.15905205M27.3476504 3.07798893C29.4528638 3.07798893 30.3842613 4.69960576 30.3842613 6.46058029 30.3842613 8.22155482 29.4528638 9.84317165 27.3476504 9.84317165 25.2424369 9.84317165 24.3098795 8.22155482 24.3098795 6.46058029 24.3098795 4.69960576 25.2424369 3.07798893 27.3476504 3.07798893M31.9838755 4.67369214C31.9838755 3.96423477 31.9838755 3.69818826 31.9328401 3.22828793L32.7366488 3.22828793 32.7366488 4.46983832 32.7621666 4.46983832C33.0556206 3.74771207 33.6042519 3.07741307 34.4335785 3.07741307 34.6249615 3.07741307 34.8546212 3.114268 34.9949687 3.15342636L34.9949687 3.98842082C34.8291034 3.93889701 34.6122026 3.91355925 34.4080607 3.91355925 33.1321738 3.91355925 32.7876843 5.33132226 32.7876843 6.49801107L32.7876843 9.69056921 31.9838755 9.69056921 31.9838755 4.67369214zM44.1837905 9.6910299L44.1837905 5.39627907C44.1837905 4.4841196 43.839301 3.76199336 42.8058326 3.76199336 41.9254706 3.76199336 41.0578675 4.50830565 41.0578675 6.1172536L41.0578675 9.6910299 40.2540587 9.6910299 40.2540587 5.39627907C40.2540587 4.4841196 39.9084093 3.76199336 38.8749409 3.76199336 37.9957388 3.76199336 37.1269758 4.50830565 37.1269758 6.1172536L37.1269758 9.6910299 36.323167 9.6910299 36.323167 4.7490144C36.323167 4.25492802 36.323167 3.74817276 36.2721315 3.22874862L37.0504226 3.22874862 37.0504226 4.31942414 37.0759403 4.33094131C37.3311177 3.88753045 37.7138838 3.07787375 39.1057605 3.07787375 39.6799096 3.07787375 40.6240659 3.3185825 40.8270479 4.44496124L40.8537256 4.44496124C41.1471796 3.68482835 41.9127117 3.07787375 42.9334213 3.07787375 44.2475848 3.07787375 44.9875993 3.98888151 44.9875993 5.24425249L44.9875993 9.6910299 44.1837905 9.6910299zM51.3023117 3.9133289L49.9881481 3.9133289 49.9881481 3.22805759 51.3023117 3.22805759 51.3023117 2.76046069C51.3023117 1.40373865 51.3533472.0366511628 53.0247591.0366511628 53.2799365.0366511628 53.6244259.0746578073 53.7775324.162188261L53.7264969.860128461C53.5606316.770294574 53.3182131.720770764 53.0885534.720770764 51.9912906.720770764 52.1061205 1.89897674 52.1061205 2.67177852L52.1061205 3.22805759 53.5733905 3.22805759 53.5733905 3.9133289 52.1061205 3.9133289 52.1061205 9.69149059 51.3023117 9.69149059 51.3023117 3.9133289zM57.4194936 9.15905205C58.8229693 9.15905205 59.5757426 7.95435659 59.5757426 6.46058029 59.5757426 4.96450055 58.8229693 3.76095681 57.4194936 3.76095681 56.016018 3.76095681 55.2632447 4.96450055 55.2632447 6.46058029 55.2632447 7.95435659 56.016018 9.15905205 57.4194936 9.15905205M57.4194936 3.07798893C59.5247071 3.07798893 60.4561046 4.69960576 60.4561046 6.46058029 60.4561046 8.22155482 59.5247071 9.84317165 57.4194936 9.84317165 55.3142802 9.84317165 54.3817228 8.22155482 54.3817228 6.46058029 54.3817228 4.69960576 55.3142802 3.07798893 57.4194936 3.07798893M62.0557188 4.67369214C62.0557188 3.96423477 62.0557188 3.69818826 62.0046833 3.22828793L62.8084921 3.22828793 62.8084921 4.46983832 62.8340099 4.46983832C63.1274639 3.74771207 63.6760952 3.07741307 64.5054218 3.07741307 64.6968048 3.07741307 64.9276243 3.114268 65.066812 3.15342636L65.066812 3.98842082C64.9009467 3.93889701 64.6840459 3.91355925 64.479904 3.91355925 63.2040171 3.91355925 62.8595276 5.33132226 62.8595276 6.49801107L62.8595276 9.69056921 62.0557188 9.69056921 62.0557188 4.67369214zM73.3482462 1.6830299L71.408898 6.561701 75.2748355 6.561701 73.3482462 1.6830299zM72.9144446.845732004L73.9096364.845732004 77.4438433 9.69091473 76.5252047 9.69091473 75.5682895 7.32183389 71.0771674 7.32183389 70.1190923 9.69091473 69.2642481 9.69091473 72.9144446.845732004zM81.0682901 9.15905205C82.4972835 9.15905205 82.9948794 7.63878627 82.9948794 6.46058029 82.9948794 5.28237431 82.4972835 3.76095681 81.0682901 3.76095681 79.5372258 3.76095681 79.1417008 5.2052093 79.1417008 6.46058029 79.1417008 7.71364784 79.5372258 9.15905205 81.0682901 9.15905205L81.0682901 9.15905205zM83.7986881 9.69114507L82.9948794 9.69114507 82.9948794 8.66496567 82.9693616 8.66496567C82.5355601 9.48844297 81.8720989 9.84317165 80.9407014 9.84317165 79.1544597 9.84317165 78.2613388 8.37242968 78.2613388 6.46058029 78.2613388 4.49575194 79.026871 3.07798893 80.9407014 3.07798893 82.2165883 3.07798893 82.8545318 4.00166556 82.9693616 4.31953931L82.9948794 4.31953931 82.9948794.188332226 83.7986881.188332226 83.7986881 9.69114507z"></path> <polygon points="88.162 9.691 87.218 9.691 85.011 3.229 85.891 3.229 87.69 8.816 87.716 8.816 89.604 3.229 90.446 3.229"></polygon> <path d="M95.2141646 6.43386047L94.984505 6.43386047C93.5937882 6.43386047 91.9351352 6.57321816 91.9351352 7.99328461 91.9351352 8.84209967 92.5475609 9.15882171 93.2875753 9.15882171 95.175888 9.15882171 95.2141646 7.52453599 95.2141646 6.82774751L95.2141646 6.43386047zM95.2907178 8.65206645L95.2652001 8.65206645C94.9079517 9.42601993 94.002072 9.84294131 93.1982632 9.84294131 91.3482272 9.84294131 91.0547732 8.60139092 91.0547732 8.01862237 91.0547732 5.85109192 93.3768874 5.74974086 95.0610582 5.74974086L95.2141646 5.74974086 95.2141646 5.42150166C95.2141646 4.31930897 94.8186397 3.76187818 93.7341358 3.76187818 93.0579157 3.76187818 92.4199722 3.91390476 91.8203053 4.29397121L91.8203053 3.52116944C92.3179012 3.28046069 93.1599866 3.07775858 93.7341358 3.07775858 95.3417533 3.07775858 96.0179734 3.79988483 96.0179734 5.48484607L96.0179734 8.33419269C96.0179734 8.85476855 96.0179734 9.24750388 96.0829276 9.69091473L95.2907178 9.69091473 95.2907178 8.65206645zM97.9530299 4.7490144C97.9530299 4.25492802 97.9530299 3.74817276 97.9019944 3.22874862L98.6802855 3.22874862 98.6802855 4.38276855 98.7058032 4.38276855C98.9737395 3.8 99.4585765 3.07787375 100.811017 3.07787375 102.419794 3.07787375 103.03106 4.1420598 103.03106 5.56097453L103.03106 9.6910299 102.228411 9.6910299 102.228411 5.76367663C102.228411 4.54631229 101.79461 3.76199336 100.683428 3.76199336 99.216158 3.76199336 98.7568387 5.04155039 98.7568387 6.1172536L98.7568387 9.6910299 97.9530299 9.6910299 97.9530299 4.7490144zM109.333361 4.09000221C108.89956 3.90112071 108.376446 3.76176301 107.942645 3.76176301 106.373304 3.76176301 105.491782 4.88814175 105.491782 6.46138649 105.491782 7.92982503 106.386063 9.15870653 107.853333 9.15870653 108.363687 9.15870653 108.835766 9.04583832 109.320603 8.86732226L109.397156 9.61478627C108.848524 9.80597121 108.33817 9.84282614 107.725744 9.84282614 105.633289 9.84282614 104.61258 8.25921595 104.61258 6.46138649 104.61258 4.47006866 105.901226 3.07764341 107.827815 3.07764341 108.606106 3.07764341 109.167496 3.25385604 109.397156 3.32986932L109.333361 4.09000221zM114.677008 6.00427021C114.677008 4.87673976 114.217689 3.76187818 113.017195 3.76187818 111.83062 3.76187818 111.103365 4.94008416 111.103365 6.00427021L114.677008 6.00427021zM115.072533 9.48821262C114.509983 9.71625249 113.782727 9.84294131 113.18422 9.84294131 111.026811 9.84294131 110.223003 8.39868882 110.223003 6.46034994 110.223003 4.48400443 111.320265 3.07775858 112.96616 3.07775858 114.803437 3.07775858 115.55737 4.54619712 115.55737 6.2829856L115.55737 6.68838981 111.103365 6.68838981C111.103365 8.0554773 111.843379 9.15882171 113.248015 9.15882171 113.833763 9.15882171 114.689767 8.91811296 115.072533 8.67740421L115.072533 9.48821262zM119.626869 9.15905205C121.055863 9.15905205 121.553459 7.63878627 121.553459 6.46058029 121.553459 5.28237431 121.055863 3.76095681 119.626869 3.76095681 118.095805 3.76095681 117.70028 5.2052093 117.70028 6.46058029 117.70028 7.71364784 118.095805 9.15905205 119.626869 9.15905205L119.626869 9.15905205zM122.357267 9.69114507L121.553459 9.69114507 121.553459 8.66496567 121.527941 8.66496567C121.095299 9.48844297 120.430678 9.84317165 119.500441 9.84317165 117.713039 9.84317165 116.819918 8.37242968 116.819918 6.46058029 116.819918 4.49575194 117.58545 3.07798893 119.500441 3.07798893 120.775168 3.07798893 121.413111 4.00166556 121.527941 4.31953931L121.553459 4.31953931 121.553459.188332226 122.357267.188332226 122.357267 9.69114507zM127.945536 8.5640753C128.46865 8.89231451 129.081076 9.08234773 129.910402 9.08234773 131.008825 9.08234773 131.914705 8.52606866 131.914705 7.27069767 131.914705 5.53506091 127.830706 5.32084164 127.830706 3.00128461 127.830706 1.58236988 129.081076.695548173 130.650417.695548173 131.085378.695548173 131.787116.75889258 132.399542.985780731L132.259194 1.78392027C131.863669 1.56854928 131.238484 1.45568106 130.638818 1.45568106 129.719019 1.45568106 128.711068 1.83574751 128.711068 2.97479513 128.711068 4.74843854 132.795067 4.76225914 132.795067 7.34671096 132.795067 9.13302326 131.251243 9.84248062 129.873285 9.84248062 129.005682 9.84248062 128.328302 9.666268 127.857384 9.46241417L127.945536 8.5640753zM138.860401 4.09000221C138.42544 3.90112071 137.903486 3.76176301 137.469684 3.76176301 135.899183 3.76176301 135.017662 4.88814175 135.017662 6.46138649 135.017662 7.92982503 135.913102 9.15870653 137.380372 9.15870653 137.890727 9.15870653 138.361645 9.04583832 138.846482 8.86732226L138.924195 9.61478627C138.375564 9.80597121 137.865209 9.84282614 137.251624 9.84282614 135.159169 9.84282614 134.139619 8.25921595 134.139619 6.46138649 134.139619 4.47006866 135.427105 3.07764341 137.353695 3.07764341 138.133145 3.07764341 138.693376 3.25385604 138.924195 3.32986932L138.860401 4.09000221zM140.291018 9.6910299L141.093667 9.6910299 141.093667 3.22874862 140.291018 3.22874862 140.291018 9.6910299zM140.291018 1.50578073L141.093667 1.50578073 141.093667.441594684 140.291018.441594684 140.291018 1.50578073zM147.191479 6.00427021C147.191479 4.87673976 146.73216 3.76187818 145.531666 3.76187818 144.346251 3.76187818 143.617835 4.94008416 143.617835 6.00427021L147.191479 6.00427021zM147.587004 9.48821262C147.024454 9.71625249 146.297198 9.84294131 145.698691 9.84294131 143.542442 9.84294131 142.738633 8.39868882 142.738633 6.46034994 142.738633 4.48400443 143.834736 3.07775858 145.48179 3.07775858 147.319068 3.07775858 148.071841 4.54619712 148.071841 6.2829856L148.071841 6.68838981 143.617835 6.68838981C143.617835 8.0554773 144.35901 9.15882171 145.763645 9.15882171 146.349393 9.15882171 147.204238 8.91811296 147.587004 8.67740421L147.587004 9.48821262zM149.655101 4.7490144C149.655101 4.25492802 149.655101 3.74817276 149.602905 3.22874862L150.382356 3.22874862 150.382356 4.38276855 150.406714 4.38276855C150.67465 3.8 151.160647 3.07787375 152.513087 3.07787375 154.120705 3.07787375 154.733131 4.1420598 154.733131 5.56097453L154.733131 9.6910299 153.930482 9.6910299 153.930482 5.76367663C153.930482 4.54631229 153.49552 3.76199336 152.385499 3.76199336 150.918229 3.76199336 150.457749 5.04155039 150.457749 6.1172536L150.457749 9.6910299 149.655101 9.6910299 149.655101 4.7490144zM159.476878 3.9133289L157.996849 3.9133289 157.996849 8.0940598C157.996849 8.67798007 158.21375 9.15939756 158.864452 9.15939756 159.169505 9.15939756 159.374807 9.09490144 159.604467 9.00737099L159.654342 9.66615282C159.464119 9.74216611 159.067434 9.84236545 158.673069 9.84236545 157.244076 9.84236545 157.191881 8.86801329 157.191881 7.68865559L157.191881 3.9133289 155.917154 3.9133289 155.917154 3.22805759 157.191881 3.22805759 157.191881 1.67093688 157.996849 1.39222148 157.996849 3.22805759 159.476878 3.22805759 159.476878 3.9133289zM160.970826 9.6910299L161.774635 9.6910299 161.774635 3.22874862 160.970826 3.22874862 160.970826 9.6910299zM160.970826 1.50578073L161.774635 1.50578073 161.774635.441594684 160.970826.441594684 160.970826 1.50578073zM164.404122 3.9133289L163.088798 3.9133289 163.088798 3.22805759 164.404122 3.22805759 164.404122 2.76046069C164.404122 1.40373865 164.455157.0366511628 166.126569.0366511628 166.381746.0366511628 166.726236.0746578073 166.879342.162188261L166.829467.860128461C166.662441.770294574 166.420023.720770764 166.190363.720770764 165.093101.720770764 165.20677 1.89897674 165.20677 2.67177852L165.20677 3.22805759 166.6752 3.22805759 166.6752 3.9133289 165.20677 3.9133289 165.20677 9.69149059 164.404122 9.69149059 164.404122 3.9133289zM168.163348 9.6910299L168.965997 9.6910299 168.965997 3.22874862 168.163348 3.22874862 168.163348 9.6910299zM168.164508 1.50578073L168.967157 1.50578073 168.967157.441594684 168.164508.441594684 168.164508 1.50578073zM175.290685 4.09000221C174.855723 3.90112071 174.33377 3.76176301 173.899968 3.76176301 172.329467 3.76176301 171.447945 4.88814175 171.447945 6.46138649 171.447945 7.92982503 172.343386 9.15870653 173.810656 9.15870653 174.321011 9.15870653 174.791929 9.04583832 175.276766 8.86732226L175.354479 9.61478627C174.805848 9.80597121 174.295493 9.84282614 173.681907 9.84282614 171.589453 9.84282614 170.569903 8.25921595 170.569903 6.46138649 170.569903 4.47006866 171.857389 3.07764341 173.783978 3.07764341 174.563429 3.07764341 175.12366 3.25385604 175.354479 3.32986932L175.290685 4.09000221zM186.721936 1.83597785C186.161706 1.54344186 185.356737 1.45591141 184.731552 1.45591141 182.422197 1.45591141 181.120792 3.07752824 181.120792 5.26809302 181.120792 7.49896788 182.38392 9.08257807 184.731552 9.08257807 185.31962 9.08257807 186.212741 9.0077165 186.721936 8.70366334L186.774131 9.46264452C186.289294 9.75402879 185.294102 9.84271096 184.731552 9.84271096 181.923441 9.84271096 180.24043 8.00572315 180.24043 5.26809302 180.24043 2.58229014 181.975637.695778516 184.731552.695778516 185.254666.695778516 186.313652.78330897 186.774131 1.02401772L186.721936 1.83597785zM191.171302 9.15905205C192.574777 9.15905205 193.327551 7.95435659 193.327551 6.46058029 193.327551 4.96450055 192.574777 3.76095681 191.171302 3.76095681 189.766666 3.76095681 189.015053 4.96450055 189.015053 6.46058029 189.015053 7.95435659 189.766666 9.15905205 191.171302 9.15905205M191.171302 3.07798893C193.275355 3.07798893 194.207913 4.69960576 194.207913 6.46058029 194.207913 8.22155482 193.275355 9.84317165 191.171302 9.84317165 189.066088 9.84317165 188.133531 8.22155482 188.133531 6.46058029 188.133531 4.69960576 189.066088 3.07798893 191.171302 3.07798893M203.667338 9.6910299L203.667338 5.39627907C203.667338 4.4841196 203.322849 3.76199336 202.29054 3.76199336 201.409019 3.76199336 200.541415 4.50830565 200.541415 6.1172536L200.541415 9.6910299 199.737607 9.6910299 199.737607 5.39627907C199.737607 4.4841196 199.391957 3.76199336 198.359649 3.76199336 197.479287 3.76199336 196.610524 4.50830565 196.610524 6.1172536L196.610524 9.6910299 195.807875 9.6910299 195.807875 4.7490144C195.807875 4.25492802 195.807875 3.74817276 195.756839 3.22874862L196.53513 3.22874862 196.53513 4.31942414 196.560648 4.33094131C196.815826 3.88753045 197.198592 3.07787375 198.589308 3.07787375 199.163458 3.07787375 200.108774 3.3185825 200.311756 4.44496124L200.337273 4.44496124C200.631887 3.68482835 201.39742 3.07787375 202.416969 3.07787375 203.732293 3.07787375 204.471147 3.98888151 204.471147 5.24425249L204.471147 9.6910299 203.667338 9.6910299zM209.151912 3.76153267C207.722919 3.76153267 207.225323 5.28179845 207.225323 6.46115615 207.225323 7.63821041 207.722919 9.15962791 209.151912 9.15962791 210.682977 9.15962791 211.079662 7.7142237 211.079662 6.46115615 211.079662 5.20578516 210.682977 3.76153267 209.151912 3.76153267L209.151912 3.76153267zM206.421514 3.22828793L207.225323 3.22828793 207.174288 4.40764563 207.198645 4.40764563C207.403947 4.05291694 207.901543 3.07741307 209.279501 3.07741307 211.193332 3.07741307 211.958864 4.4963278 211.958864 6.46115615 211.958864 8.37300554 211.065743 9.84259579 209.279501 9.84259579 208.258792 9.84259579 207.646366 9.42567442 207.250841 8.58837652L207.225323 8.58837652 207.225323 12.352186 206.421514 12.352186 206.421514 3.22828793zM218.709813 8.1704186C218.709813 8.6656567 218.709813 9.17126024 218.762009 9.69068439L217.982558 9.69068439 217.982558 8.53781617 217.9582 8.53781617C217.690264 9.12058472 217.205427 9.84271096 215.851827 9.84271096 214.244209 9.84271096 213.631783 8.77852492 213.631783 7.35961019L213.631783 3.2284031 214.434432 3.2284031 214.434432 7.15690808C214.434432 8.37312071 214.869394 9.15859136 215.979415 9.15859136 217.447845 9.15859136 217.907165 7.87903433 217.907165 6.80333112L217.907165 3.2284031 218.709813 3.2284031 218.709813 8.1704186zM223.591705 3.9133289L222.112836 3.9133289 222.112836 8.0940598C222.112836 8.67798007 222.328577 9.15939756 222.980439 9.15939756 223.285492 9.15939756 223.489634 9.09490144 223.719294 9.00737099L223.770329 9.66615282C223.578946 9.74216611 223.183421 9.84236545 222.787896 9.84236545 221.358903 9.84236545 221.307867 8.86801329 221.307867 7.68865559L221.307867 3.9133289 220.03314 3.9133289 220.03314 3.22805759 221.307867 3.22805759 221.307867 1.67093688 222.112836 1.39222148 222.112836 3.22805759 223.591705 3.22805759 223.591705 3.9133289zM225.085305 9.6910299L225.887953 9.6910299 225.887953 3.22874862 225.085305 3.22874862 225.085305 9.6910299zM225.086464 1.50578073L225.889113 1.50578073 225.889113.441594684 225.086464.441594684 225.086464 1.50578073zM227.896083 4.7490144C227.896083 4.25492802 227.896083 3.74817276 227.843888 3.22874862L228.623339 3.22874862 228.623339 4.38276855 228.647697 4.38276855C228.915633 3.8 229.40163 3.07787375 230.75407 3.07787375 232.361688 3.07787375 232.974113 4.1420598 232.974113 5.56097453L232.974113 9.6910299 232.171465 9.6910299 232.171465 5.76367663C232.171465 4.54631229 231.736503 3.76199336 230.626482 3.76199336 229.159212 3.76199336 228.698732 5.04155039 228.698732 6.1172536L228.698732 9.6910299 227.896083 9.6910299 227.896083 4.7490144zM237.383695 9.00725581C238.838206 9.00725581 239.36132 7.63901661 239.36132 6.46081063 239.36132 4.90253821 238.902 3.76118715 237.43473 3.76118715 235.903666 3.76118715 235.508141 5.20543965 235.508141 6.46081063 235.508141 7.72769878 236.017336 9.00725581 237.383695 9.00725581L237.383695 9.00725581zM240.165128 9.15928239C240.165128 10.9571118 239.348561 12.4290055 237.116918 12.4290055 236.259754 12.4290055 235.482623 12.1882968 235.149733 12.085794L235.213527 11.2876545C235.712283 11.5410321 236.42678 11.7437342 237.127357 11.7437342 239.195454 11.7437342 239.375238 10.2488062 239.375238 8.42448726L239.348561 8.42448726C238.914759 9.3619845 238.200262 9.69137542 237.369776 9.69137542 235.29008 9.69137542 234.626619 7.89124252 234.626619 6.46081063 234.626619 4.49598228 235.392151 3.07821927 237.307142 3.07821927 238.174745 3.07821927 238.736135 3.18993577 239.336962 3.96388926L239.36132 3.96388926 239.36132 3.22794241 240.165128 3.22794241 240.165128 9.15928239z"></path> </g> </g> </svg>
